<svg width="12" height="12" viewBox="0 0 12 12" fill="none" xmlns="http://www.w3.org/2000/svg">
<path d="M6.00008 0.166504C7.585 0.166504 7.78275 0.172337 8.40458 0.201504C9.02583 0.230671 9.44875 0.328087 9.82092 0.472754C10.2059 0.620921 10.5302 0.821587 10.8546 1.14534C11.1512 1.43694 11.3807 1.78968 11.5272 2.179C11.6712 2.55059 11.7692 2.97409 11.7984 3.59534C11.8258 4.21717 11.8334 4.41492 11.8334 5.99984C11.8334 7.58475 11.8276 7.7825 11.7984 8.40434C11.7692 9.02559 11.6712 9.4485 11.5272 9.82067C11.3811 10.2102 11.1516 10.563 10.8546 10.8543C10.5629 11.1509 10.2102 11.3804 9.82092 11.5269C9.44933 11.671 9.02583 11.769 8.40458 11.7982C7.78275 11.8256 7.585 11.8332 6.00008 11.8332C4.41516 11.8332 4.21741 11.8273 3.59558 11.7982C2.97433 11.769 2.55141 11.671 2.17925 11.5269C1.78977 11.3808 1.43697 11.1512 1.14558 10.8543C0.848902 10.5628 0.619375 10.21 0.472998 9.82067C0.328331 9.44909 0.230915 9.02559 0.201748 8.40434C0.174331 7.7825 0.166748 7.58475 0.166748 5.99984C0.166748 4.41492 0.172581 4.21717 0.201748 3.59534C0.230915 2.9735 0.328331 2.55117 0.472998 2.179C0.618969 1.78944 0.84855 1.43661 1.14558 1.14534C1.43706 0.848555 1.78983 0.619013 2.17925 0.472754C2.55141 0.328087 2.97375 0.230671 3.59558 0.201504C4.21741 0.174087 4.41516 0.166504 6.00008 0.166504ZM6.00008 3.08317C5.22653 3.08317 4.48467 3.39046 3.93769 3.93744C3.39071 4.48442 3.08342 5.22629 3.08342 5.99984C3.08342 6.77339 3.39071 7.51525 3.93769 8.06223C4.48467 8.60921 5.22653 8.9165 6.00008 8.9165C6.77363 8.9165 7.5155 8.60921 8.06248 8.06223C8.60946 7.51525 8.91675 6.77339 8.91675 5.99984C8.91675 5.22629 8.60946 4.48442 8.06248 3.93744C7.5155 3.39046 6.77363 3.08317 6.00008 3.08317ZM9.79175 2.93734C9.79175 2.74395 9.71493 2.55848 9.57818 2.42174C9.44144 2.28499 9.25597 2.20817 9.06258 2.20817C8.86919 2.20817 8.68373 2.28499 8.54698 2.42174C8.41024 2.55848 8.33342 2.74395 8.33342 2.93734C8.33342 3.13072 8.41024 3.31619 8.54698 3.45294C8.68373 3.58968 8.86919 3.6665 9.06258 3.6665C9.25597 3.6665 9.44144 3.58968 9.57818 3.45294C9.71493 3.31619 9.79175 3.13072 9.79175 2.93734ZM6.00008 4.24984C6.46421 4.24984 6.90933 4.43421 7.23752 4.7624C7.56571 5.09059 7.75008 5.53571 7.75008 5.99984C7.75008 6.46397 7.56571 6.90909 7.23752 7.23727C6.90933 7.56546 6.46421 7.74984 6.00008 7.74984C5.53595 7.74984 5.09083 7.56546 4.76264 7.23727C4.43446 6.90909 4.25008 6.46397 4.25008 5.99984C4.25008 5.53571 4.43446 5.09059 4.76264 4.7624C5.09083 4.43421 5.53595 4.24984 6.00008 4.24984Z" fill="#1B1B1B"/>
</svg>
