<svg width="12" height="16" viewBox="0 0 12 16" fill="none" xmlns="http://www.w3.org/2000/svg">
<path d="M1.5 0.5H10.5C10.6989 0.5 10.8897 0.579018 11.0303 0.71967C11.171 0.860322 11.25 1.05109 11.25 1.25V14.75C11.25 14.9489 11.171 15.1397 11.0303 15.2803C10.8897 15.421 10.6989 15.5 10.5 15.5H1.5C1.30109 15.5 1.11032 15.421 0.96967 15.2803C0.829018 15.1397 0.75 14.9489 0.75 14.75V1.25C0.75 1.05109 0.829018 0.860322 0.96967 0.71967C1.11032 0.579018 1.30109 0.5 1.5 0.5ZM6 11.75C5.80109 11.75 5.61032 11.829 5.46967 11.9697C5.32902 12.1103 5.25 12.3011 5.25 12.5C5.25 12.6989 5.32902 12.8897 5.46967 13.0303C5.61032 13.171 5.80109 13.25 6 13.25C6.19891 13.25 6.38968 13.171 6.53033 13.0303C6.67098 12.8897 6.75 12.6989 6.75 12.5C6.75 12.3011 6.67098 12.1103 6.53033 11.9697C6.38968 11.829 6.19891 11.75 6 11.75Z" fill="#2B2B2B"/>
</svg>
