<svg width="12" height="10" viewBox="0 0 12 10" fill="none" xmlns="http://www.w3.org/2000/svg">
<path d="M11.9279 1.29953C11.4826 1.49652 11.0103 1.62589 10.5268 1.68337C11.0364 1.37854 11.4179 0.898793 11.6001 0.333535C11.1218 0.618201 10.5973 0.817701 10.0508 0.925618C9.68361 0.532789 9.19697 0.272263 8.66648 0.184542C8.136 0.0968217 7.59139 0.186821 7.11733 0.440549C6.64327 0.694277 6.26632 1.09752 6.04508 1.58758C5.82383 2.07764 5.7707 2.62707 5.89393 3.15045C4.9239 3.10183 3.97495 2.84976 3.10868 2.41059C2.2424 1.97142 1.47817 1.35498 0.865592 0.601285C0.648761 0.973714 0.534816 1.39708 0.535425 1.82803C0.535425 2.67387 0.965925 3.42112 1.62043 3.85862C1.2331 3.84642 0.854294 3.74182 0.515592 3.55354V3.58387C0.515709 4.14719 0.710641 4.69314 1.06734 5.12915C1.42403 5.56516 1.92054 5.8644 2.47268 5.97612C2.11312 6.07356 1.7361 6.08792 1.37018 6.01812C1.52585 6.503 1.82926 6.92707 2.23794 7.23093C2.64661 7.5348 3.14008 7.70325 3.64926 7.7127C3.14321 8.11014 2.56378 8.40394 1.94411 8.5773C1.32443 8.75066 0.676666 8.80018 0.0378418 8.72303C1.153 9.4402 2.45115 9.82094 3.77701 9.8197C8.26459 9.8197 10.7187 6.10212 10.7187 2.87804C10.7187 2.77304 10.7158 2.66687 10.7111 2.56303C11.1888 2.2178 11.601 1.79013 11.9285 1.30012L11.9279 1.29953Z" fill="#1B1B1B"/>
</svg>
